# xmcd
#
# Track frame offsets: 
#        150
#        15671
#        30332
#        46052
#        66481
#        82005
#        107011
#        118356
#        135341
#        146076
#        164248
#
# Disc length: 2505 seconds
#
# Revision: 3
# Processed by: cddbd v1.5.2PL0 Copyright (c) Steve Scherf et al.
# Submitted via: ExactAudioCopyFreeDBPlugin 1.0
#
DISCID=9a09c70b
DTITLE=Krausberry - Siksa a gadzo
DYEAR=1998
DGENRE=Blues
TTITLE0=Siksa a gadzo
TTITLE1=Druha lavice
TTITLE2=Do nebe
TTITLE3=Emil
TTITLE4=Korenova zelenina
TTITLE5=Horoskop
TTITLE6=Velkej kluk
TTITLE7=Tahne mi na ctyricet
TTITLE8=Disco boy
TTITLE9=Nas dum
TTITLE10=Stary casy
EXTD=
EXTT0=
EXTT1=
EXTT2=
EXTT3=
EXTT4=
EXTT5=
EXTT6=
EXTT7=
EXTT8=
EXTT9=
EXTT10=
PLAYORDER=
